<svg width="36" height="22" viewBox="0 0 36 22" fill="none" xmlns="http://www.w3.org/2000/svg" xmlns:xlink="http://www.w3.org/1999/xlink">
<path d="M17.979,11.219L32.451,10.869C31.551,9.871 31.326,8.998 29.607,8.848C27.033,8.623 24.46,8.398 21.886,8.173L6.909,6.863C7.357,7.348 14.342,11.307 17.979,11.219Z" fill="#000000"/>
<path d="M0.202,0.896C1.765,2.63 9.676,6.409 11.932,6.603C18.101,7.136 24.269,7.669 30.437,8.201C29.229,6.862 28.949,5.967 26.766,5.583L17.256,3.905C11.571,2.902 5.886,1.899 0.202,0.896Z" fill="#000000"/>
<path d="M22.666,14.376L33.787,12.785C33.065,11.986 33.063,11.505 31.713,11.545C29.521,11.611 27.329,11.677 25.137,11.742C21.1,11.863 17.062,11.984 13.025,12.104C13.479,12.431 19.758,14.792 22.666,14.376Z" fill="#000000"/>
<path d="M31.414,20.112C33.451,19.223 33.999,18.267 35.158,16.813C36.458,15.183 35.605,14.939 34.154,13.326C34.005,13.161 32.074,13.381 31.857,13.542C31.592,13.737 31.768,14.845 31.752,15.094L31.414,20.112Z" fill="#000000"/>
<path d="M30.939,13.717C29.589,13.91 27.877,13.762 27.532,14.727L26.066,18.839C29.357,18.311 30.825,15.66 30.939,13.717Z" fill="#000000"/>
<path d="M26.78,14.355C23.524,14.822 23.592,15.457 22.196,17.504C24.41,17.363 26.476,15.746 26.78,14.355Z" fill="#000000"/>
</svg>
