<svg width="36" height="24" viewBox="0 0 36 24" fill="none" xmlns="http://www.w3.org/2000/svg" xmlns:xlink="http://www.w3.org/1999/xlink">
<path d="M17.979,12.857L32.451,12.435C31.551,11.233 31.326,10.18 29.607,9.999C27.033,9.728 24.46,9.457 21.886,9.185L6.909,7.607C7.357,8.192 14.342,12.963 17.979,12.857Z" fill="#000000"/>
<path d="M0.202,0.416C1.765,2.506 9.676,7.059 11.932,7.294C18.101,7.936 24.269,8.578 30.437,9.219C29.229,7.605 28.949,6.527 26.766,6.064L17.256,4.042C11.571,2.834 5.886,1.625 0.202,0.416Z" fill="#000000"/>
<path d="M22.666,16.661L33.787,14.743C33.065,13.78 33.063,13.2 31.713,13.249C29.521,13.328 27.329,13.407 25.137,13.486C21.1,13.631 17.062,13.778 13.025,13.923C13.479,14.316 19.758,17.162 22.666,16.661Z" fill="#000000"/>
<path d="M31.414,23.575C33.451,22.504 33.999,21.351 35.158,19.599C36.458,17.634 35.605,17.34 34.154,15.396C34.005,15.198 32.074,15.463 31.857,15.657C31.592,15.892 31.768,17.227 31.752,17.527L31.414,23.575Z" fill="#000000"/>
<path d="M30.939,15.867C29.589,16.1 27.877,15.922 27.532,17.085L26.066,22.041C29.357,21.404 30.825,18.21 30.939,15.867Z" fill="#000000"/>
<path d="M26.78,16.637C23.524,17.199 23.592,17.964 22.196,20.432C24.41,20.262 26.476,18.313 26.78,16.637Z" fill="#000000"/>
</svg>
